<svg width="718" height="726" viewBox="0 0 718 726" fill="none" xmlns="http://www.w3.org/2000/svg">
<path d="M717.925 525.5V0.5H0.0749512V525.5H300.675V615.763C182.487 626.85 96.4999 671.05 96.4999 725.5H121.5C121.5 684.112 219.037 638 359 638C498.962 638 596.5 684.112 596.5 725.5H621.5C621.5 671.05 535.512 626.85 417.337 615.763V525.5H717.925ZM25.0749 25.5H692.937V500.5H25.0749V25.5ZM392.337 600.5H325.675V525.5H392.337V600.5Z" fill="black"/>
<path d="M96.5 188H184V100.5H96.5V188ZM121.5 125.5H159V163H121.5V125.5Z" fill="black"/>
<path d="M315.25 188H402.75V100.5H315.25V188ZM340.25 125.5H377.75V163H340.25V125.5Z" fill="black"/>
<path d="M534 188H621.5V100.5H534V188ZM559 125.5H596.5V163H559V125.5Z" fill="black"/>
<path d="M96.5 375.5H184V288H96.5V375.5ZM121.5 313H159V350.5H121.5V313Z" fill="black"/>
<path d="M315.25 375.5H402.75V288H315.25V375.5ZM340.25 313H377.75V350.5H340.25V313Z" fill="black"/>
<path d="M534 375.5H621.5V288H534V375.5ZM559 313H596.5V350.5H559V313Z" fill="black"/>
</svg>
