<svg width="790" height="717" viewBox="0 0 790 717" fill="none" xmlns="http://www.w3.org/2000/svg">
<path fill-rule="evenodd" clip-rule="evenodd" d="M767.5 659.25H732.5V266.75C732.5 239.25 645 168 645 168C645 168 470 239.25 470 266.75V708H395V106.75C395 79.25 282.5 8 282.5 8C282.5 8 57.5 79.25 57.5 106.75V659.25H20C6.24998 659.25 7.49998 670.5 7.49998 684.25C7.49998 698 6.24998 709.25 20 709.25H767.5C785 709.25 782.5 698 782.5 684.25C782.5 670.5 785 659.25 767.5 659.25Z" stroke="black" stroke-width="14"/>
<path d="M282.5 8V621.75" stroke="black" stroke-width="14"/>
<path d="M95 155.5L182.5 118" stroke="black" stroke-width="14"/>
<path d="M95 229.25L182.5 191.75" stroke="black" stroke-width="14"/>
<path d="M95 290.5L182.5 253" stroke="black" stroke-width="14"/>
<path d="M95 351.75L182.5 315.5" stroke="black" stroke-width="14"/>
<path d="M95 425.5L182.5 389.25" stroke="black" stroke-width="14"/>
<path d="M95 486.75L182.5 450.5" stroke="black" stroke-width="14"/>
<path d="M95 560.5L182.5 524.25" stroke="black" stroke-width="14"/>
<path d="M95 621.75L182.5 585.5" stroke="black" stroke-width="14"/>
<path d="M207.5 106.75L245 94.25" stroke="black" stroke-width="14"/>
<path d="M207.5 180.5L245 168" stroke="black" stroke-width="14"/>
<path d="M207.5 241.75L245 229.25" stroke="black" stroke-width="14"/>
<path d="M207.5 303L245 290.5" stroke="black" stroke-width="14"/>
<path d="M207.5 376.75L245 364.25" stroke="black" stroke-width="14"/>
<path d="M207.5 438L245 425.5" stroke="black" stroke-width="14"/>
<path d="M207.5 511.75L245 499.25" stroke="black" stroke-width="14"/>
<path d="M207.5 573L245 560.5" stroke="black" stroke-width="14"/>
<path d="M645 168V621.75" stroke="black" stroke-width="14"/>
<path d="M507.5 303L595 265.5" stroke="black" stroke-width="14"/>
<path d="M507.5 364.25L595 326.75" stroke="black" stroke-width="14"/>
<path d="M507.5 425.5L595 389.25" stroke="black" stroke-width="14"/>
<path d="M507.5 499.25L595 461.75" stroke="black" stroke-width="14"/>
<path d="M507.5 560.5L595 524.25" stroke="black" stroke-width="14"/>
</svg>
